# xmcd
#
# Track frame offsets:
#	150
#	12978
#	26393
#	40779
#	59328
#	73421
#	87024
#	100658
#	116854
#	124113
#
# Disc length: 1854 seconds
#
# Revision: 0
# Processed by: cddbd v1.5.1PL0 Copyright (c) Steve Scherf et al.
# Submitted via: dBpowerAMP V4.0
#
DISCID=80073c0a
DTITLE=K-ras citadinas - El bailongo
DYEAR=2000
DGENRE=Ska
TTITLE0=Intro
TTITLE1=Los estramboticos
TTITLE2=La trucha capirucha
TTITLE3=Mi negrita consentida
TTITLE4=Pedro
TTITLE5=El tema de los K-ras
TTITLE6=Planetario
TTITLE7=Las mascaras de america
TTITLE8=La guacareada
TTITLE9=Candela
EXTD=
EXTT0=
EXTT1=
EXTT2=
EXTT3=
EXTT4=
EXTT5=
EXTT6=
EXTT7=
EXTT8=
EXTT9=
PLAYORDER=
